<svg width="119" height="24" viewBox="0 0 119 24" fill="none" xmlns="http://www.w3.org/2000/svg">
<path d="M101.355 8.52734V18.5H97.9805V5.82031H101.145L101.355 8.52734ZM100.863 11.7148H99.9492C99.9492 10.7773 100.07 9.93359 100.312 9.18359C100.555 8.42578 100.895 7.78125 101.332 7.25C101.77 6.71094 102.289 6.30078 102.891 6.01953C103.5 5.73047 104.18 5.58594 104.93 5.58594C105.523 5.58594 106.066 5.67188 106.559 5.84375C107.051 6.01562 107.473 6.28906 107.824 6.66406C108.184 7.03906 108.457 7.53516 108.645 8.15234C108.84 8.76953 108.938 9.52344 108.938 10.4141V18.5H105.539V10.4023C105.539 9.83984 105.461 9.40234 105.305 9.08984C105.148 8.77734 104.918 8.55859 104.613 8.43359C104.316 8.30078 103.949 8.23438 103.512 8.23438C103.059 8.23438 102.664 8.32422 102.328 8.50391C102 8.68359 101.727 8.93359 101.508 9.25391C101.297 9.56641 101.137 9.93359 101.027 10.3555C100.918 10.7773 100.863 11.2305 100.863 11.7148Z" fill="#EFF7F2"/>
<path d="M92.0508 15.6406V9.99219C92.0508 9.58594 91.9844 9.23828 91.8516 8.94922C91.7188 8.65234 91.5117 8.42188 91.2305 8.25781C90.957 8.09375 90.6016 8.01172 90.1641 8.01172C89.7891 8.01172 89.4648 8.07812 89.1914 8.21094C88.918 8.33594 88.707 8.51953 88.5586 8.76172C88.4102 8.99609 88.3359 9.27344 88.3359 9.59375H84.9609C84.9609 9.05469 85.0859 8.54297 85.3359 8.05859C85.5859 7.57422 85.9492 7.14844 86.4258 6.78125C86.9023 6.40625 87.4688 6.11328 88.125 5.90234C88.7891 5.69141 89.5312 5.58594 90.3516 5.58594C91.3359 5.58594 92.2109 5.75 92.9766 6.07812C93.7422 6.40625 94.3438 6.89844 94.7812 7.55469C95.2266 8.21094 95.4492 9.03125 95.4492 10.0156V15.4414C95.4492 16.1367 95.4922 16.707 95.5781 17.1523C95.6641 17.5898 95.7891 17.9727 95.9531 18.3008V18.5H92.543C92.3789 18.1562 92.2539 17.7266 92.168 17.2109C92.0898 16.6875 92.0508 16.1641 92.0508 15.6406ZM92.4961 10.7773L92.5195 12.6875H90.6328C90.1875 12.6875 89.8008 12.7383 89.4727 12.8398C89.1445 12.9414 88.875 13.0859 88.6641 13.2734C88.4531 13.4531 88.2969 13.6641 88.1953 13.9062C88.1016 14.1484 88.0547 14.4141 88.0547 14.7031C88.0547 14.9922 88.1211 15.2539 88.2539 15.4883C88.3867 15.7148 88.5781 15.8945 88.8281 16.0273C89.0781 16.1523 89.3711 16.2148 89.707 16.2148C90.2148 16.2148 90.6562 16.1133 91.0312 15.9102C91.4062 15.707 91.6953 15.457 91.8984 15.1602C92.1094 14.8633 92.2188 14.582 92.2266 14.3164L93.1172 15.7461C92.9922 16.0664 92.8203 16.3984 92.6016 16.7422C92.3906 17.0859 92.1211 17.4102 91.793 17.7148C91.4648 18.0117 91.0703 18.2578 90.6094 18.4531C90.1484 18.6406 89.6016 18.7344 88.9688 18.7344C88.1641 18.7344 87.4336 18.5742 86.7773 18.2539C86.1289 17.9258 85.6133 17.4766 85.2305 16.9062C84.8555 16.3281 84.668 15.6719 84.668 14.9375C84.668 14.2734 84.793 13.6836 85.043 13.168C85.293 12.6523 85.6602 12.2188 86.1445 11.8672C86.6367 11.5078 87.25 11.2383 87.9844 11.0586C88.7188 10.8711 89.5703 10.7773 90.5391 10.7773H92.4961Z" fill="#EFF7F2"/>
<path d="M75.0469 0.5V18.5H71.6719V0.5H75.0469ZM74.5664 11.7148H73.6406C73.6484 10.832 73.7656 10.0195 73.9922 9.27734C74.2188 8.52734 74.543 7.87891 74.9648 7.33203C75.3867 6.77734 75.8906 6.34766 76.4766 6.04297C77.0703 5.73828 77.7266 5.58594 78.4453 5.58594C79.0703 5.58594 79.6367 5.67578 80.1445 5.85547C80.6602 6.02734 81.1016 6.30859 81.4688 6.69922C81.8438 7.08203 82.1328 7.58594 82.3359 8.21094C82.5391 8.83594 82.6406 9.59375 82.6406 10.4844V18.5H79.2422V10.4609C79.2422 9.89844 79.1602 9.45703 78.9961 9.13672C78.8398 8.80859 78.6094 8.57812 78.3047 8.44531C78.0078 8.30469 77.6406 8.23438 77.2031 8.23438C76.7188 8.23438 76.3047 8.32422 75.9609 8.50391C75.625 8.68359 75.3555 8.93359 75.1523 9.25391C74.9492 9.56641 74.8008 9.93359 74.707 10.3555C74.6133 10.7773 74.5664 11.2305 74.5664 11.7148Z" fill="#EFF7F2"/>
<path d="M69.832 5.82031V8.21094H62.4492V5.82031H69.832ZM64.2773 2.69141H67.6523V14.6797C67.6523 15.0469 67.6992 15.3281 67.793 15.5234C67.8945 15.7188 68.043 15.8555 68.2383 15.9336C68.4336 16.0039 68.6797 16.0391 68.9766 16.0391C69.1875 16.0391 69.375 16.0312 69.5391 16.0156C69.7109 15.9922 69.8555 15.9688 69.9727 15.9453L69.9844 18.4297C69.6953 18.5234 69.3828 18.5977 69.0469 18.6523C68.7109 18.707 68.3398 18.7344 67.9336 18.7344C67.1914 18.7344 66.543 18.6133 65.9883 18.3711C65.4414 18.1211 65.0195 17.7227 64.7227 17.1758C64.4258 16.6289 64.2773 15.9102 64.2773 15.0195V2.69141Z" fill="#EFF7F2"/>
<path d="M57.6211 8.58594V18.5H54.2461V5.82031H57.4219L57.6211 8.58594ZM61.4414 5.73828L61.3828 8.86719C61.2188 8.84375 61.0195 8.82422 60.7852 8.80859C60.5586 8.78516 60.3516 8.77344 60.1641 8.77344C59.6875 8.77344 59.2734 8.83594 58.9219 8.96094C58.5781 9.07812 58.2891 9.25391 58.0547 9.48828C57.8281 9.72266 57.6562 10.0078 57.5391 10.3438C57.4297 10.6797 57.3672 11.0625 57.3516 11.4922L56.6719 11.2812C56.6719 10.4609 56.7539 9.70703 56.918 9.01953C57.082 8.32422 57.3203 7.71875 57.6328 7.20312C57.9531 6.6875 58.3438 6.28906 58.8047 6.00781C59.2656 5.72656 59.793 5.58594 60.3867 5.58594C60.5742 5.58594 60.7656 5.60156 60.9609 5.63281C61.1562 5.65625 61.3164 5.69141 61.4414 5.73828Z" fill="#EFF7F2"/>
<path d="M47.1211 18.7344C46.1367 18.7344 45.2539 18.5781 44.4727 18.2656C43.6914 17.9453 43.0273 17.5039 42.4805 16.9414C41.9414 16.3789 41.5273 15.7266 41.2383 14.9844C40.9492 14.2344 40.8047 13.4375 40.8047 12.5938V12.125C40.8047 11.1641 40.9414 10.2852 41.2148 9.48828C41.4883 8.69141 41.8789 8 42.3867 7.41406C42.9023 6.82812 43.5273 6.37891 44.2617 6.06641C44.9961 5.74609 45.8242 5.58594 46.7461 5.58594C47.6445 5.58594 48.4414 5.73438 49.1367 6.03125C49.832 6.32812 50.4141 6.75 50.8828 7.29688C51.3594 7.84375 51.7188 8.5 51.9609 9.26562C52.2031 10.0234 52.3242 10.8672 52.3242 11.7969V13.2031H42.2461V10.9531H49.0078V10.6953C49.0078 10.2266 48.9219 9.80859 48.75 9.44141C48.5859 9.06641 48.3359 8.76953 48 8.55078C47.6641 8.33203 47.2344 8.22266 46.7109 8.22266C46.2656 8.22266 45.8828 8.32031 45.5625 8.51562C45.2422 8.71094 44.9805 8.98438 44.7773 9.33594C44.582 9.6875 44.4336 10.1016 44.332 10.5781C44.2383 11.0469 44.1914 11.5625 44.1914 12.125V12.5938C44.1914 13.1016 44.2617 13.5703 44.4023 14C44.5508 14.4297 44.7578 14.8008 45.0234 15.1133C45.2969 15.4258 45.625 15.668 46.0078 15.8398C46.3984 16.0117 46.8398 16.0977 47.332 16.0977C47.9414 16.0977 48.5078 15.9805 49.0312 15.7461C49.5625 15.5039 50.0195 15.1406 50.4023 14.6562L52.043 16.4375C51.7773 16.8203 51.4141 17.1875 50.9531 17.5391C50.5 17.8906 49.9531 18.1797 49.3125 18.4062C48.6719 18.625 47.9414 18.7344 47.1211 18.7344Z" fill="#EFF7F2"/>
<path d="M35.6016 5.82031H38.6602V18.0781C38.6602 19.2344 38.4023 20.2148 37.8867 21.0195C37.3789 21.832 36.668 22.4453 35.7539 22.8594C34.8398 23.2812 33.7773 23.4922 32.5664 23.4922C32.0352 23.4922 31.4727 23.4219 30.8789 23.2812C30.293 23.1406 29.7305 22.9219 29.1914 22.625C28.6602 22.3281 28.2148 21.9531 27.8555 21.5L29.3438 19.5078C29.7344 19.9609 30.1875 20.3125 30.7031 20.5625C31.2188 20.8203 31.7891 20.9492 32.4141 20.9492C33.0234 20.9492 33.5391 20.8359 33.9609 20.6094C34.3828 20.3906 34.707 20.0664 34.9336 19.6367C35.1602 19.2148 35.2734 18.7031 35.2734 18.1016V8.75L35.6016 5.82031ZM27.0703 12.3125V12.0664C27.0703 11.0977 27.1875 10.2188 27.4219 9.42969C27.6641 8.63281 28.0039 7.94922 28.4414 7.37891C28.8867 6.80859 29.4258 6.36719 30.0586 6.05469C30.6914 5.74219 31.4062 5.58594 32.2031 5.58594C33.0469 5.58594 33.7539 5.74219 34.3242 6.05469C34.8945 6.36719 35.3633 6.8125 35.7305 7.39062C36.0977 7.96094 36.3828 8.63672 36.5859 9.41797C36.7969 10.1914 36.9609 11.0391 37.0781 11.9609V12.5C36.9609 13.3828 36.7852 14.2031 36.5508 14.9609C36.3164 15.7188 36.0078 16.3828 35.625 16.9531C35.2422 17.5156 34.7656 17.9531 34.1953 18.2656C33.6328 18.5781 32.9609 18.7344 32.1797 18.7344C31.3984 18.7344 30.6914 18.5742 30.0586 18.2539C29.4336 17.9336 28.8984 17.4844 28.4531 16.9062C28.0078 16.3281 27.6641 15.6484 27.4219 14.8672C27.1875 14.0859 27.0703 13.2344 27.0703 12.3125ZM30.4453 12.0664V12.3125C30.4453 12.8359 30.4961 13.3242 30.5977 13.7773C30.6992 14.2305 30.8555 14.6328 31.0664 14.9844C31.2852 15.3281 31.5547 15.5977 31.875 15.793C32.2031 15.9805 32.5898 16.0742 33.0352 16.0742C33.6523 16.0742 34.1562 15.9453 34.5469 15.6875C34.9375 15.4219 35.2305 15.0586 35.4258 14.5977C35.6211 14.1367 35.7344 13.6055 35.7656 13.0039V11.4688C35.75 10.9766 35.6836 10.5352 35.5664 10.1445C35.4492 9.74609 35.2852 9.40625 35.0742 9.125C34.8633 8.84375 34.5898 8.625 34.2539 8.46875C33.918 8.3125 33.5195 8.23438 33.0586 8.23438C32.6133 8.23438 32.2266 8.33594 31.8984 8.53906C31.5781 8.73438 31.3086 9.00391 31.0898 9.34766C30.8789 9.69141 30.7188 10.0977 30.6094 10.5664C30.5 11.0273 30.4453 11.5273 30.4453 12.0664Z" fill="#EFF7F2"/>
<path d="M22.3945 8.58594V18.5H19.0195V5.82031H22.1953L22.3945 8.58594ZM26.2148 5.73828L26.1562 8.86719C25.9922 8.84375 25.793 8.82422 25.5586 8.80859C25.332 8.78516 25.125 8.77344 24.9375 8.77344C24.4609 8.77344 24.0469 8.83594 23.6953 8.96094C23.3516 9.07812 23.0625 9.25391 22.8281 9.48828C22.6016 9.72266 22.4297 10.0078 22.3125 10.3438C22.2031 10.6797 22.1406 11.0625 22.125 11.4922L21.4453 11.2812C21.4453 10.4609 21.5273 9.70703 21.6914 9.01953C21.8555 8.32422 22.0938 7.71875 22.4062 7.20312C22.7266 6.6875 23.1172 6.28906 23.5781 6.00781C24.0391 5.72656 24.5664 5.58594 25.1602 5.58594C25.3477 5.58594 25.5391 5.60156 25.7344 5.63281C25.9297 5.65625 26.0898 5.69141 26.2148 5.73828Z" fill="#EFF7F2"/>
<path d="M13.0195 15.6406V9.99219C13.0195 9.58594 12.9531 9.23828 12.8203 8.94922C12.6875 8.65234 12.4805 8.42188 12.1992 8.25781C11.9258 8.09375 11.5703 8.01172 11.1328 8.01172C10.7578 8.01172 10.4336 8.07812 10.1602 8.21094C9.88672 8.33594 9.67578 8.51953 9.52734 8.76172C9.37891 8.99609 9.30469 9.27344 9.30469 9.59375H5.92969C5.92969 9.05469 6.05469 8.54297 6.30469 8.05859C6.55469 7.57422 6.91797 7.14844 7.39453 6.78125C7.87109 6.40625 8.4375 6.11328 9.09375 5.90234C9.75781 5.69141 10.5 5.58594 11.3203 5.58594C12.3047 5.58594 13.1797 5.75 13.9453 6.07812C14.7109 6.40625 15.3125 6.89844 15.75 7.55469C16.1953 8.21094 16.418 9.03125 16.418 10.0156V15.4414C16.418 16.1367 16.4609 16.707 16.5469 17.1523C16.6328 17.5898 16.7578 17.9727 16.9219 18.3008V18.5H13.5117C13.3477 18.1562 13.2227 17.7266 13.1367 17.2109C13.0586 16.6875 13.0195 16.1641 13.0195 15.6406ZM13.4648 10.7773L13.4883 12.6875H11.6016C11.1562 12.6875 10.7695 12.7383 10.4414 12.8398C10.1133 12.9414 9.84375 13.0859 9.63281 13.2734C9.42188 13.4531 9.26562 13.6641 9.16406 13.9062C9.07031 14.1484 9.02344 14.4141 9.02344 14.7031C9.02344 14.9922 9.08984 15.2539 9.22266 15.4883C9.35547 15.7148 9.54688 15.8945 9.79688 16.0273C10.0469 16.1523 10.3398 16.2148 10.6758 16.2148C11.1836 16.2148 11.625 16.1133 12 15.9102C12.375 15.707 12.6641 15.457 12.8672 15.1602C13.0781 14.8633 13.1875 14.582 13.1953 14.3164L14.0859 15.7461C13.9609 16.0664 13.7891 16.3984 13.5703 16.7422C13.3594 17.0859 13.0898 17.4102 12.7617 17.7148C12.4336 18.0117 12.0391 18.2578 11.5781 18.4531C11.1172 18.6406 10.5703 18.7344 9.9375 18.7344C9.13281 18.7344 8.40234 18.5742 7.74609 18.2539C7.09766 17.9258 6.58203 17.4766 6.19922 16.9062C5.82422 16.3281 5.63672 15.6719 5.63672 14.9375C5.63672 14.2734 5.76172 13.6836 6.01172 13.168C6.26172 12.6523 6.62891 12.2188 7.11328 11.8672C7.60547 11.5078 8.21875 11.2383 8.95312 11.0586C9.6875 10.8711 10.5391 10.7773 11.5078 10.7773H13.4648Z" fill="#EFF7F2"/>
<path d="M3.38672 0.5V18.5H0V0.5H3.38672Z" fill="#EFF7F2"/>
<path d="M115.222 16.0957C115.434 16.0957 115.54 16.234 115.54 16.5107C115.54 16.877 115.373 17.2554 115.039 17.646C114.551 18.2157 113.896 18.5005 113.074 18.5005C112.13 18.5005 111.483 18.118 111.133 17.353C111.003 17.0845 110.938 16.759 110.938 16.3765C110.938 15.994 111.003 15.5708 111.133 15.1069C111.271 14.6349 111.438 14.1426 111.633 13.6299C111.837 13.109 112.056 12.5841 112.292 12.0552L112.939 10.5171C113.411 9.36963 113.647 8.61279 113.647 8.24658C113.647 7.88037 113.607 7.6403 113.525 7.52637C113.452 7.4043 113.371 7.31071 113.281 7.24561L113.037 7.07471C112.956 7.01774 112.915 6.92008 112.915 6.78174C112.915 6.63525 112.968 6.49691 113.074 6.3667C113.188 6.23649 113.334 6.12256 113.513 6.0249C113.879 5.83773 114.307 5.74414 114.795 5.74414C115.991 5.74414 116.589 6.05745 116.589 6.68408C116.589 7.4165 116.398 8.25472 116.016 9.19873C115.633 10.1346 115.308 10.8914 115.039 11.4692L114.307 13.1538C113.77 14.3908 113.501 15.2819 113.501 15.8271C113.501 16.1852 113.68 16.3643 114.038 16.3643C114.388 16.3643 114.653 16.3195 114.832 16.23C115.011 16.1405 115.141 16.0957 115.222 16.0957Z" fill="#F2C94C"/>
<path d="M116.971 3.90576C117.198 3.78369 117.402 3.62907 117.581 3.44189C117.76 3.24658 117.902 3.02279 118.008 2.77051C118.122 2.51009 118.179 2.18864 118.179 1.80615C118.179 1.41553 117.98 1.08594 117.581 0.817383C117.418 0.703451 117.239 0.62207 117.044 0.573242C116.857 0.524414 116.588 0.5 116.238 0.5C115.896 0.5 115.53 0.626139 115.14 0.878418C114.936 1.00863 114.765 1.17952 114.627 1.39111C114.497 1.59456 114.432 1.90381 114.432 2.31885C114.432 2.73389 114.606 3.14486 114.956 3.55176C115.119 3.74707 115.31 3.89762 115.53 4.00342C115.758 4.10921 115.998 4.1499 116.25 4.12549C116.503 4.09294 116.743 4.01969 116.971 3.90576Z" fill="#F2C94C"/>
</svg>
