<?xml version="1.0" encoding="utf-8"?>
<!-- Generator: Adobe Illustrator 24.3.0, SVG Export Plug-In . SVG Version: 6.00 Build 0)  -->
<svg version="1.1" id="Layer_1" xmlns="http://www.w3.org/2000/svg" xmlns:xlink="http://www.w3.org/1999/xlink" x="0px" y="0px"
	 viewBox="0 0 118.6 23.7" style="enable-background:new 0 0 118.6 23.7;" xml:space="preserve">
<style type="text/css">
	.st0{fill:#F2C94C;}
	.st1{fill:#EFF7F2;}
</style>
<g>
	<g>
		<path class="st0" d="M115.6,15.6c0.2,0,0.3,0.1,0.3,0.4c0,0.4-0.2,0.7-0.5,1.1c-0.5,0.6-1.1,0.9-2,0.9s-1.6-0.4-1.9-1.1
			c-0.1-0.3-0.2-0.6-0.2-1s0.1-0.8,0.2-1.3s0.3-1,0.5-1.5s0.4-1,0.7-1.6l0.6-1.5c0.5-1.1,0.7-1.9,0.7-2.3s0-0.6-0.1-0.7
			s-0.2-0.2-0.2-0.3l-0.2-0.2c-0.1-0.1-0.1-0.2-0.1-0.3c0-0.1,0.1-0.3,0.2-0.4s0.3-0.2,0.4-0.3c0.4-0.2,0.8-0.3,1.3-0.3
			c1.2,0,1.8,0.3,1.8,0.9c0,0.7-0.2,1.6-0.6,2.5s-0.7,1.7-1,2.3l-0.7,1.7c-0.5,1.2-0.8,2.1-0.8,2.7c0,0.4,0.2,0.5,0.5,0.5
			s0.6,0,0.8-0.1S115.6,15.6,115.6,15.6z"/>
		<path class="st0" d="M117.4,3.4c0.2-0.1,0.4-0.3,0.6-0.5s0.3-0.4,0.4-0.7s0.2-0.6,0.2-1s-0.2-0.7-0.6-1c-0.2-0.1-0.3-0.2-0.5-0.2
			c-0.2,0-0.5,0-0.8,0s-0.7,0.1-1.1,0.4c-0.2,0.1-0.4,0.3-0.5,0.5s-0.2,0.5-0.2,0.9s0.2,0.8,0.5,1.2c0.2,0.2,0.4,0.3,0.6,0.5
			c0.2,0.1,0.5,0.1,0.7,0.1C116.9,3.6,117.2,3.5,117.4,3.4z"/>
	</g>
	<path class="st1" d="M0,18V0.9h3.4V18H0z"/>
	<path class="st1" d="M14.1,6.6h3.4V18h-3.4l-0.2-1c-0.3,0.4-0.6,0.7-1.1,1s-0.9,0.4-1.5,0.4c-0.9,0-1.6-0.2-2.4-0.5
		c-0.7-0.3-1.4-0.8-2-1.3c-0.6-0.6-1-1.2-1.3-2c-0.3-0.7-0.5-1.5-0.5-2.4c0-0.8,0.1-1.6,0.4-2.3C6,9.2,6.4,8.5,6.9,8s1.2-1,1.9-1.3
		s1.5-0.5,2.3-0.5c0.7,0,1.2,0.1,1.8,0.4c0.5,0.3,1,0.6,1.4,1L14.1,6.6z M11.3,15c0.5,0,0.9-0.1,1.3-0.4c0.4-0.2,0.7-0.6,0.9-1
		s0.3-0.9,0.3-1.4s-0.1-1-0.3-1.4s-0.5-0.7-0.9-1c-0.4-0.2-0.8-0.4-1.3-0.4S10.4,9.7,10,10c-0.4,0.2-0.7,0.6-0.9,1s-0.3,0.9-0.3,1.4
		s0.1,1,0.3,1.4s0.5,0.7,0.9,1C10.4,14.9,10.8,15,11.3,15z"/>
	<path class="st1" d="M19.8,18V6.6h3.4v0.7C23.6,7,24,6.7,24.5,6.6c0.5-0.2,1-0.3,1.5-0.3c0.4,0,0.8,0.1,1.3,0.2L26,9.9
		c-0.3-0.1-0.5-0.2-0.8-0.2c-0.4,0-0.7,0.1-1,0.3s-0.5,0.4-0.7,0.7s-0.3,0.6-0.3,1V18H19.8z"/>
	<path class="st1" d="M36.1,6.6h3.4v11.5c0,0.9-0.2,1.6-0.5,2.3c-0.3,0.7-0.8,1.3-1.4,1.8c-0.6,0.5-1.3,0.9-2.1,1.1
		c-0.8,0.3-1.6,0.4-2.5,0.4c-0.8,0-1.6-0.2-2.3-0.5c-0.7-0.3-1.4-0.7-2-1.3c-0.6-0.5-1-1.2-1.4-1.9l3.1-1.4c0.2,0.3,0.4,0.6,0.6,0.9
		c0.3,0.2,0.6,0.4,0.9,0.6c0.3,0.1,0.7,0.2,1,0.2c0.4,0,0.8,0,1.1-0.1c0.4-0.1,0.7-0.2,1-0.4c0.3-0.2,0.5-0.4,0.7-0.7
		c0.2-0.3,0.3-0.6,0.3-1V17c-0.3,0.4-0.7,0.7-1.2,0.9c-0.5,0.2-1,0.4-1.6,0.4c-0.8,0-1.6-0.2-2.3-0.5c-0.7-0.3-1.4-0.7-1.9-1.3
		c-0.6-0.5-1-1.2-1.3-1.9s-0.5-1.5-0.5-2.3s0.2-1.6,0.5-2.3s0.7-1.4,1.3-1.9c0.6-0.6,1.2-1,1.9-1.3c0.7-0.3,1.5-0.5,2.3-0.5
		c0.6,0,1.1,0.1,1.6,0.4c0.5,0.2,0.9,0.6,1.2,0.9L36.1,6.6L36.1,6.6z M33.4,15c0.5,0,0.9-0.1,1.3-0.4c0.4-0.2,0.7-0.6,0.9-1
		s0.3-0.9,0.3-1.4s-0.1-1-0.3-1.4s-0.5-0.7-0.9-1c-0.4-0.2-0.8-0.4-1.3-0.4s-0.9,0.1-1.3,0.4c-0.4,0.2-0.7,0.6-0.9,1
		c-0.2,0.4-0.3,0.9-0.3,1.4s0.1,1,0.3,1.4c0.2,0.4,0.5,0.7,0.9,1C32.5,14.9,32.9,15,33.4,15z"/>
	<path class="st1" d="M47,18.3c-1,0-2-0.3-2.9-0.8s-1.5-1.3-2.1-2.2s-0.8-1.9-0.8-3c0-0.8,0.1-1.6,0.4-2.3c0.3-0.7,0.7-1.4,1.2-1.9
		c0.5-0.6,1.1-1,1.8-1.3s1.4-0.5,2.2-0.5c0.9,0,1.7,0.2,2.5,0.6s1.4,0.9,1.9,1.6s0.9,1.4,1.1,2.3c0.2,0.9,0.2,1.7,0.1,2.6h-7.6
		c0.1,0.3,0.2,0.5,0.4,0.7s0.4,0.4,0.7,0.5s0.6,0.2,0.9,0.2c0.3,0,0.6-0.1,0.9-0.2c0.3-0.2,0.5-0.4,0.7-0.6l3.5,0.8
		c-0.5,1-1.2,1.8-2.1,2.5C49.1,18,48.1,18.3,47,18.3z M44.8,10.9h4.3c-0.1-0.3-0.3-0.6-0.5-0.9c-0.2-0.3-0.5-0.4-0.7-0.6
		c-0.3-0.1-0.6-0.2-0.9-0.2c-0.3,0-0.6,0.1-0.9,0.2c-0.3,0.1-0.5,0.3-0.7,0.6C45.1,10.3,44.9,10.6,44.8,10.9z"/>
	<path class="st1" d="M54.4,18V6.6h3.4v0.7c0.4-0.3,0.8-0.6,1.3-0.8c0.5-0.2,1-0.3,1.5-0.3c0.4,0,0.8,0.1,1.3,0.2l-1.3,3.5
		c-0.3-0.1-0.5-0.2-0.8-0.2c-0.4,0-0.7,0.1-1,0.3s-0.5,0.4-0.7,0.7s-0.3,0.6-0.3,1V18H54.4z"/>
	<path class="st1" d="M69.7,10h-1.9v8h-3.4v-8h-1.5V6.6h1.5V3h3.4v3.6h1.9V10z"/>
	<path class="st1" d="M82.5,10.7V18h-3.4v-6.3c0-0.4-0.1-0.7-0.3-1c-0.2-0.3-0.4-0.5-0.7-0.7c-0.3-0.2-0.6-0.3-1-0.3s-0.7,0.1-1,0.3
		s-0.5,0.4-0.7,0.7s-0.3,0.6-0.3,1V18h-3.4V0.9h3.4v6.4C75.6,7,76,6.7,76.5,6.6c0.5-0.2,1-0.3,1.5-0.3c0.8,0,1.6,0.2,2.2,0.6
		c0.7,0.4,1.2,0.9,1.6,1.6C82.3,9.2,82.5,9.9,82.5,10.7z"/>
	<path class="st1" d="M92.7,6.6h3.4V18h-3.4l-0.2-1c-0.3,0.4-0.6,0.7-1.1,1c-0.4,0.2-0.9,0.4-1.5,0.4c-0.9,0-1.6-0.2-2.4-0.5
		c-0.7-0.3-1.4-0.8-2-1.3c-0.6-0.6-1-1.2-1.3-2c-0.3-0.7-0.5-1.5-0.5-2.4c0-0.8,0.1-1.6,0.4-2.3C84.6,9.2,85,8.5,85.5,8
		s1.2-1,1.9-1.3c0.7-0.3,1.5-0.5,2.3-0.5c0.7,0,1.2,0.1,1.8,0.4c0.5,0.3,1,0.6,1.4,1L92.7,6.6z M89.9,15c0.5,0,0.9-0.1,1.3-0.4
		c0.4-0.2,0.7-0.6,0.9-1s0.3-0.9,0.3-1.4s-0.1-1-0.3-1.4s-0.5-0.7-0.9-1c-0.4-0.2-0.8-0.4-1.3-0.4S89,9.7,88.6,10
		c-0.4,0.2-0.7,0.6-0.9,1c-0.2,0.4-0.3,0.9-0.3,1.4s0.1,1,0.3,1.4c0.2,0.4,0.5,0.7,0.9,1C89,14.9,89.4,15,89.9,15z"/>
	<path class="st1" d="M109.1,10.7V18h-3.4v-6.3c0-0.4-0.1-0.7-0.3-1c-0.2-0.3-0.4-0.5-0.7-0.7c-0.3-0.2-0.6-0.3-1-0.3
		s-0.7,0.1-1,0.3s-0.5,0.4-0.7,0.7s-0.3,0.6-0.3,1V18h-3.4V6.6h3.4v0.7c0.4-0.3,0.8-0.6,1.3-0.8c0.5-0.2,1-0.3,1.5-0.3
		c0.8,0,1.6,0.2,2.2,0.6c0.7,0.4,1.2,0.9,1.6,1.6C108.9,9.2,109.1,9.9,109.1,10.7z"/>
</g>
</svg>
